<?xml version="1.0" encoding="UTF-8" standalone="no"?>
<svg width="162px" height="45px" viewBox="0 0 162 45" version="1.1" xmlns="http://www.w3.org/2000/svg" xmlns:xlink="http://www.w3.org/1999/xlink" xmlns:sketch="http://www.bohemiancoding.com/sketch/ns">
    <!-- Generator: Sketch 3.3.3 (12081) - http://www.bohemiancoding.com/sketch -->
    <title>FP-gs Copy 3</title>
    <desc>Created with Sketch.</desc>
    <defs>
        <path id="path-1" d="M0.0156298774,0.241742103 L161.525405,0.241742103 L161.525405,44.2846525 L0.0156298774,44.2846525"></path>
    </defs>
    <g id="Page-1" stroke="none" stroke-width="1" fill="none" fill-rule="evenodd" sketch:type="MSPage">
        <g id="FP-gs-Copy-3" sketch:type="MSLayerGroup">
            <path d="M39.9684619,9.78404274 C39.9684619,9.13331884 39.8106001,8.87698885 39.2784028,8.87698885 L38.0756838,8.87698885 L38.0756838,11.4006931 C38.0756838,11.9526882 38.1939498,12.0907521 38.548748,12.0907521 L39.3966689,12.0907521 L39.3966689,14.1017964 L32.752408,14.1017964 L32.752408,12.0907521 L33.4424671,12.0907521 C33.8170632,12.0907521 33.9157919,11.9526882 33.9157919,11.4006931 L33.9157919,3.71157488 C33.9157919,3.15957971 33.8170632,3.02151579 33.4424671,3.02151579 L32.752408,3.02151579 L32.752408,1.01073207 L43.7735556,1.01073207 L43.7735556,4.73689483 L41.8414422,4.73689483 L41.5061813,3.82984095 C41.1513831,3.06111148 40.8752553,3.02151579 39.8501958,3.02151579 L38.0756838,3.02151579 L38.0756838,6.88574247 L39.2784028,6.88574247 C39.8106001,6.88574247 39.9684619,6.68854552 39.9684619,6.03808213 L39.9684619,5.56501784 L41.7427135,5.56501784 L41.7427135,10.257107 L39.9684619,10.257107 L39.9684619,9.78404274" id="Fill-1" fill="#377BB4" sketch:type="MSShapeGroup"></path>
            <path d="M45.5084719,2.05558937 C45.5084719,0.990934225 46.3167971,0.241742103 47.539314,0.241742103 C48.7615704,0.241742103 49.5698956,0.990934225 49.5698956,2.05558937 C49.5698956,3.12024452 48.7615704,3.86943664 47.539314,3.86943664 C46.3167971,3.86943664 45.5084719,3.12024452 45.5084719,2.05558937 L45.5084719,2.05558937 Z M44.7199446,12.0907521 L45.252142,12.0907521 C45.5282698,12.0907521 45.626738,11.9526882 45.626738,11.4796239 L45.626738,7.24080119 C45.626738,6.64921033 45.5282698,6.45201338 45.1930089,6.45201338 L44.7199446,6.45201338 L44.7199446,4.44122965 L47.026654,4.44122965 C48.0913092,4.44122965 48.9785652,4.32270308 49.4909647,4.20443701 L49.4909647,11.4796239 C49.4909647,11.9526882 49.5896934,12.0907521 49.8655608,12.0907521 L50.3584229,12.0907521 L50.3584229,14.1017964 L44.7199446,14.1017964 L44.7199446,12.0907521 L44.7199446,12.0907521 Z" id="Fill-2" fill="#377BB4" sketch:type="MSShapeGroup"></path>
            <path d="M55.8786351,5.86068302 C56.4702259,4.71709699 57.5544184,4.16510182 59.0528027,4.16510182 C61.1427778,4.16510182 62.2269703,5.38735823 62.2269703,8.0293285 L62.2269703,11.4796239 C62.2269703,12.0118213 62.3650342,12.0907521 62.6213642,12.0907521 L63.1340242,12.0907521 L63.1340242,14.1017964 L57.5742163,14.1017964 L57.5742163,12.0907521 L57.9881475,12.0907521 C58.2444775,12.0907521 58.3825414,12.0118213 58.3825414,11.4796239 L58.3825414,8.08846154 C58.3825414,6.96467336 58.0670784,6.5507421 57.2785511,6.5507421 C56.3912951,6.5507421 55.9377681,7.16187031 55.9377681,8.6800524 L55.9377681,11.4796239 C55.9377681,12.0118213 56.075832,12.0907521 56.332162,12.0907521 L56.7460933,12.0907521 L56.7460933,14.1017964 L51.1865459,14.1017964 L51.1865459,12.0907521 L51.6989454,12.0907521 C51.9552754,12.0907521 52.0933393,12.0118213 52.0933393,11.4796239 L52.0933393,7.16187031 C52.0933393,6.60987514 51.9948711,6.45201338 51.6989454,6.45201338 L51.1865459,6.45201338 L51.1865459,4.44122965 L53.4536596,4.44122965 C54.4985169,4.44122965 55.3857729,4.32270308 55.8786351,4.20443701 L55.8786351,5.86068302" id="Fill-3" fill="#377BB4" sketch:type="MSShapeGroup"></path>
            <path d="M69.9554236,10.2769049 L69.9554236,9.56704794 C68.5951033,9.78404274 67.3926447,10.0995058 67.3926447,11.2232939 C67.3926447,11.8146243 67.806576,12.2090182 68.378369,12.2090182 C69.4232263,12.2090182 69.9554236,11.4204909 69.9554236,10.2769049 L69.9554236,10.2769049 Z M67.6883099,6.17614604 C67.7672408,6.41267819 67.8263738,6.64921033 67.8263738,6.92533816 C67.8263738,7.85192939 67.0573839,8.54198848 66.0125266,8.54198848 C64.7900097,8.54198848 64.0999506,7.93086027 64.0999506,6.80707209 C64.0999506,5.05235786 65.8744627,4.16510182 69.0486302,4.16510182 C72.518463,4.16510182 73.800113,5.07189521 73.800113,7.57580156 L73.800113,11.4796239 C73.800113,11.9328904 73.8985812,12.0907521 74.174709,12.0907521 L74.6871085,12.0907521 L74.6871085,14.1017964 L70.8624775,14.1017964 C70.4089506,13.6678068 70.2117536,13.2932107 69.9950193,12.6229495 C69.5216945,13.6284716 68.2009699,14.3776637 66.781256,14.3776637 C64.9082757,14.3776637 63.8042854,13.2736734 63.8042854,11.7752891 C63.8042854,9.05464846 67.1558521,8.62065886 69.9554236,8.12779673 L69.9554236,7.59559941 C69.9554236,6.57027945 69.5414924,6.09721516 68.4570394,6.09721516 C68.1418369,6.09721516 67.8855069,6.13655035 67.6883099,6.17614604 L67.6883099,6.17614604 Z" id="Fill-4" fill="#377BB4" sketch:type="MSShapeGroup"></path>
            <path d="M80.3258473,5.86068302 C80.9174381,4.71709699 82.0018911,4.16510182 83.5002754,4.16510182 C85.58999,4.16510182 86.674443,5.38735823 86.674443,8.0293285 L86.674443,11.4796239 C86.674443,12.0118213 86.8125069,12.0907521 87.0685764,12.0907521 L87.5812363,12.0907521 L87.5812363,14.1017964 L82.0214285,14.1017964 L82.0214285,12.0907521 L82.4353597,12.0907521 C82.6919502,12.0907521 82.8297536,12.0118213 82.8297536,11.4796239 L82.8297536,8.08846154 C82.8297536,6.96467336 82.5142906,6.5507421 81.7257633,6.5507421 C80.8385072,6.5507421 80.3849803,7.16187031 80.3849803,8.6800524 L80.3849803,11.4796239 C80.3849803,12.0118213 80.5230442,12.0907521 80.7793742,12.0907521 L81.193566,12.0907521 L81.193566,14.1017964 L75.6337581,14.1017964 L75.6337581,12.0907521 L76.1464181,12.0907521 C76.402748,12.0907521 76.5405515,12.0118213 76.5405515,11.4796239 L76.5405515,7.16187031 C76.5405515,6.60987514 76.4418227,6.45201338 76.1464181,6.45201338 L75.6337581,6.45201338 L75.6337581,4.44122965 L77.9011323,4.44122965 C78.9459896,4.44122965 79.8329851,4.32270308 80.3258473,4.20443701 L80.3258473,5.86068302" id="Fill-5" fill="#377BB4" sketch:type="MSShapeGroup"></path>
            <path d="M95.3096897,6.51114641 C95.0140245,6.25481643 94.5607581,6.13655035 93.9493694,6.13655035 C92.5893096,6.13655035 91.8200591,6.96467336 91.8200591,8.8967867 L91.8200591,9.35031364 C91.8200591,11.2232939 92.5692512,12.0316191 93.870699,12.0316191 C94.9152958,12.0316191 95.5462219,11.5189591 95.9406158,10.57257 L97.9120643,11.6963582 C97.2811382,13.2538755 95.9802114,14.3776637 93.3778369,14.3776637 C89.9470788,14.3776637 87.9164972,12.5046834 87.9164972,9.23204757 C87.9164972,6.07741732 89.9668766,4.16510182 93.358039,4.16510182 C96.3152118,4.16510182 97.9318621,5.36782088 97.9318621,7.49713118 C97.9318621,8.85745151 97.1631327,9.82337793 95.8421475,9.82337793 C94.6592263,9.82337793 93.9691672,9.0741858 93.9691672,8.16739242 C93.9691672,7.31947157 94.4422315,6.70834337 95.3096897,6.51114641" id="Fill-6" fill="#377BB4" sketch:type="MSShapeGroup"></path>
            <path d="M99.410709,2.05558937 C99.410709,0.990934225 100.219034,0.241742103 101.441551,0.241742103 C102.663547,0.241742103 103.472133,0.990934225 103.472133,2.05558937 C103.472133,3.12024452 102.663547,3.86943664 101.441551,3.86943664 C100.219034,3.86943664 99.410709,3.12024452 99.410709,2.05558937 L99.410709,2.05558937 Z M98.6221817,12.0907521 L99.1546395,12.0907521 C99.4302464,12.0907521 99.5289751,11.9526882 99.5289751,11.4796239 L99.5289751,7.24080119 C99.5289751,6.64921033 99.4302464,6.45201338 99.095246,6.45201338 L98.6221817,6.45201338 L98.6221817,4.44122965 L100.928631,4.44122965 C101.993546,4.44122965 102.880542,4.32270308 103.393202,4.20443701 L103.393202,11.4796239 C103.393202,11.9526882 103.491931,12.0907521 103.767798,12.0907521 L104.26066,12.0907521 L104.26066,14.1017964 L98.6221817,14.1017964 L98.6221817,12.0907521 L98.6221817,12.0907521 Z" id="Fill-7" fill="#377BB4" sketch:type="MSShapeGroup"></path>
            <path d="M111.180788,10.2769049 L111.180788,9.56704794 C109.820207,9.78404274 108.617749,10.0995058 108.617749,11.2232939 C108.617749,11.8146243 109.03168,12.2090182 109.603473,12.2090182 C110.648591,12.2090182 111.180788,11.4204909 111.180788,10.2769049 L111.180788,10.2769049 Z M108.913674,6.17614604 C108.992345,6.41267819 109.051478,6.64921033 109.051478,6.92533816 C109.051478,7.85192939 108.282748,8.54198848 107.237631,8.54198848 C106.015374,8.54198848 105.325055,7.93086027 105.325055,6.80707209 C105.325055,5.05235786 107.099827,4.16510182 110.273734,4.16510182 C113.743828,4.16510182 115.025217,5.07189521 115.025217,7.57580156 L115.025217,11.4796239 C115.025217,11.9328904 115.123946,12.0907521 115.399813,12.0907521 L115.912473,12.0907521 L115.912473,14.1017964 L112.087582,14.1017964 C111.634055,13.6678068 111.437118,13.2932107 111.220123,12.6229495 C110.747059,13.6284716 109.425813,14.3776637 108.00636,14.3776637 C106.13364,14.3776637 105.02965,13.2736734 105.02965,11.7752891 C105.02965,9.05464846 108.381217,8.62065886 111.180788,8.12779673 L111.180788,7.59559941 C111.180788,6.57027945 110.766596,6.09721516 109.682404,6.09721516 C109.366941,6.09721516 109.110611,6.13655035 108.913674,6.17614604 L108.913674,6.17614604 Z" id="Fill-8" fill="#377BB4" sketch:type="MSShapeGroup"></path>
            <g id="Group-12">
                <mask id="mask-2" sketch:name="Clip 10" fill="white">
                    <use xlink:href="#path-1"></use>
                </mask>
                <g id="Clip-10"></g>
                <path d="M116.799469,12.0907521 L117.331926,12.0907521 C117.568459,12.0907521 117.706522,12.0118213 117.706522,11.4796239 L117.706522,3.73137272 C117.706522,3.17937755 117.627592,3.02151579 117.331926,3.02151579 L116.720538,3.02151579 L116.720538,1.01073207 L119.106178,1.01073207 C120.171094,1.01073207 121.058089,0.892465998 121.570749,0.773939428 L121.570749,11.4796239 C121.570749,12.0118213 121.708553,12.0907521 121.945085,12.0907521 L122.379074,12.0907521 L122.379074,14.1017964 L116.799469,14.1017964 L116.799469,12.0907521" id="Fill-9" fill="#377BB4" sketch:type="MSShapeGroup" mask="url(#mask-2)"></path>
                <path d="M0,36.003162 L11.2563772,36.003162 L11.2563772,32.9878982 L9.04527053,32.9878982 C8.48233445,32.9878982 8.28123003,32.7870543 8.28123003,31.8221698 L8.28123003,25.1891104 L11.5374545,25.1891104 C19.055165,25.1891104 22.2311561,22.8172765 22.2311561,17.1892181 C22.2311561,11.8021204 18.8543211,9.30967596 11.5778317,9.30967596 L0,9.30967596 L0,12.3249398 L2.01000223,12.3249398 C2.57267781,12.3249398 2.77378224,12.5257837 2.77378224,13.450291 L2.77378224,31.8221698 C2.77378224,32.7870543 2.57267781,32.9878982 2.01000223,32.9878982 L0,32.9878982 L0,36.003162 L0,36.003162 Z M8.28123003,12.3249398 L11.6583255,12.3249398 C15.0351605,12.3249398 16.3214994,13.6513954 16.3214994,17.2293348 C16.3214994,20.8473909 15.0351605,22.2543404 11.6583255,22.2543404 L8.28123003,22.2543404 L8.28123003,12.3249398 L8.28123003,12.3249398 Z M22.3515061,36.003162 L32.5223883,36.003162 L32.5223883,32.9878982 L30.914074,32.9878982 C30.5121256,32.9878982 30.271165,32.8675481 30.271165,31.9430409 L30.271165,8.90772761 C29.3463973,9.10883203 27.5372389,9.30967596 25.5673534,9.30967596 L22.2710123,9.30967596 L22.2710123,12.3249398 L24.1604039,12.3249398 C24.6428462,12.3249398 24.8035734,12.5659004 24.8035734,13.5310453 L24.8035734,31.9430409 C24.8035734,32.8675481 24.5623523,32.9878982 24.1604039,32.9878982 L22.3515061,32.9878982 L22.3515061,36.003162 L22.3515061,36.003162 Z M42.0092029,18.9577388 C44.863479,18.9577388 46.1901951,20.0031171 46.1901951,22.6161721 L46.1901951,23.7417837 C38.109809,24.9476288 33.1650368,26.4754493 33.1650368,31.3801048 C33.1650368,34.2744976 35.3761434,36.5257209 39.0746934,36.5257209 C42.3309179,36.5257209 45.2253107,34.797317 46.2303118,32.6661832 C46.5119101,34.033016 46.8333645,34.9979004 47.4366778,36.003162 L53.9491267,36.003162 L53.9491267,32.9878982 L52.260579,32.9878982 C51.7781368,32.9878982 51.6174095,32.7065604 51.6174095,31.9430409 L51.6174095,22.5356782 C51.6174095,17.7516332 49.0444712,15.9026187 42.9740873,15.9026187 C37.9087046,15.9026187 33.7279729,17.3095682 33.7279729,21.1688454 C33.7279729,23.259602 35.0143118,24.3849532 37.0644307,24.3849532 C38.8334723,24.3849532 40.2003051,23.2192248 40.2003051,21.4501832 C40.2003051,20.5660531 39.9187068,19.8423898 39.4365251,19.2791932 C40.079434,19.0783493 40.9239684,18.9577388 42.0092029,18.9577388 L42.0092029,18.9577388 Z M41.2454229,33.1890026 C39.5167585,33.1890026 38.431524,32.1436243 38.431524,30.4555975 C38.431524,27.7620487 41.3259168,26.7969038 46.1901951,26.1136176 L46.1901951,27.6411776 C46.1500784,30.9377793 44.2604262,33.1890026 41.2454229,33.1890026 L41.2454229,33.1890026 Z M62.6719008,16.0232293 C61.7875102,16.2243337 59.9786124,16.4249171 58.0087269,16.4249171 L54.8728525,16.4249171 L54.8728525,19.440181 L56.6418941,19.440181 C57.1641925,19.440181 57.3251802,19.6814021 57.3251802,20.646547 L57.3251802,31.9430409 C57.3251802,32.8675481 57.0839591,32.9878982 56.6418941,32.9878982 L54.8728525,32.9878982 L54.8728525,36.003162 L65.003618,36.003162 L65.003618,32.9878982 L63.4356808,32.9878982 C62.9936158,32.9878982 62.7523946,32.8675481 62.7523946,31.9430409 L62.7523946,25.8322798 C62.7523946,21.4501832 64.3203318,19.440181 67.0136202,19.440181 C69.2247269,19.440181 70.229728,20.6059093 70.229728,23.3395749 L70.229728,31.9430409 C70.229728,32.8675481 69.9885069,32.9878982 69.5461813,32.9878982 L67.9785046,32.9878982 L67.9785046,36.003162 L78.1092702,36.003162 L78.1092702,32.9878982 L76.3402285,32.9878982 C75.897903,32.9878982 75.6569424,32.8675481 75.6569424,31.9430409 L75.6569424,23.2192248 C75.6569424,18.3145693 73.4458357,15.9026187 69.3049602,15.9026187 C66.1693463,15.9026187 63.918123,17.2293348 62.6719008,19.9226232 L62.6719008,16.0232293 L62.6719008,16.0232293 Z M86.8328257,16.0232293 C85.9481747,16.2243337 84.1392768,16.4249171 82.1696518,16.4249171 L79.0337774,16.4249171 L79.0337774,19.440181 L80.802819,19.440181 C81.3248569,19.440181 81.4863657,19.6814021 81.4863657,20.646547 L81.4863657,31.9430409 C81.4863657,32.8675481 81.2448841,32.9878982 80.802819,32.9878982 L79.0337774,32.9878982 L79.0337774,36.003162 L89.1645429,36.003162 L89.1645429,32.9878982 L87.5966057,32.9878982 C87.1542802,32.9878982 86.9130591,32.8675481 86.9130591,31.9430409 L86.9130591,25.8322798 C86.9130591,21.4501832 88.4809963,19.440181 91.1745452,19.440181 C93.3851308,19.440181 94.3903924,20.6059093 94.3903924,23.3395749 L94.3903924,31.9430409 C94.3903924,32.8675481 94.1494318,32.9878982 93.7071063,32.9878982 L92.1391691,32.9878982 L92.1391691,36.003162 L102.270195,36.003162 L102.270195,32.9878982 L100.501153,32.9878982 C100.058567,32.9878982 99.8176068,32.8675481 99.8176068,31.9430409 L99.8176068,23.2192248 C99.8176068,18.3145693 97.6062397,15.9026187 93.4658852,15.9026187 C90.3300108,15.9026187 88.0787874,17.2293348 86.8328257,19.9226232 L86.8328257,16.0232293 L86.8328257,16.0232293 Z M103.234819,36.003162 L113.485674,36.003162 L113.485674,32.9878982 L111.797387,32.9878982 C111.355322,32.9878982 111.154217,32.7870543 111.154217,31.9430409 L111.154217,16.0232293 C110.22971,16.2243337 108.420291,16.4249171 106.450666,16.4249171 L103.234819,16.4249171 L103.234819,19.440181 L104.802235,19.440181 C105.485782,19.440181 105.686886,19.8020126 105.686886,21.0484954 L105.686886,31.9430409 C105.686886,32.7870543 105.485782,32.9878982 105.043717,32.9878982 L103.234819,32.9878982 L103.234819,36.003162 L103.234819,36.003162 Z M122.289203,16.0232293 C121.404812,16.2243337 119.595654,16.4249171 117.626029,16.4249171 L114.490154,16.4249171 L114.490154,19.440181 L116.259196,19.440181 C116.781494,19.440181 116.942742,19.6814021 116.942742,20.646547 L116.942742,31.9430409 C116.942742,32.8675481 116.701261,32.9878982 116.259196,32.9878982 L114.490154,32.9878982 L114.490154,36.003162 L124.62092,36.003162 L124.62092,32.9878982 L123.052983,32.9878982 C122.610918,32.9878982 122.369957,32.8675481 122.369957,31.9430409 L122.369957,25.8322798 C122.369957,21.4501832 123.937373,19.440181 126.630922,19.440181 C128.841768,19.440181 129.846769,20.6059093 129.846769,23.3395749 L129.846769,31.9430409 C129.846769,32.8675481 129.605809,32.9878982 129.163744,32.9878982 L127.595546,32.9878982 L127.595546,36.003162 L137.726572,36.003162 L137.726572,32.9878982 L135.95753,32.9878982 C135.515465,32.9878982 135.273984,32.8675481 135.273984,31.9430409 L135.273984,23.2192248 C135.273984,18.3145693 133.063398,15.9026187 128.922262,15.9026187 C125.786648,15.9026187 123.535425,17.2293348 122.289203,19.9226232 L122.289203,16.0232293 L122.289203,16.0232293 Z M148.259286,44.2846525 C155.937463,44.2846525 160.037961,41.8325853 160.037961,37.3699948 C160.037961,34.1137703 158.349414,31.8221698 153.846967,31.8221698 C152.238913,31.8221698 147.093297,31.9026637 145.284139,31.9026637 C143.35463,31.9026637 142.711461,31.540832 142.711461,30.4555975 C142.711461,29.8119071 143.032915,29.3701026 143.957423,29.1687376 C145.203645,29.5709465 146.691088,29.7319342 148.339259,29.7319342 C154.047811,29.7319342 157.786738,27.2392293 157.786738,22.8977703 C157.786738,21.1688454 157.143569,19.6814021 156.017696,18.5156737 C156.218801,17.8323876 156.620749,17.148841 157.063075,16.7466321 C157.384529,17.711777 158.108192,18.2345964 159.193427,18.2345964 C160.520404,18.2345964 161.525405,17.148841 161.525405,15.7017748 C161.525405,14.2143315 160.359416,13.1288365 158.711245,13.1288365 C156.419905,13.1288365 155.133306,14.8575009 154.731357,17.4702954 C153.123564,16.4655548 150.992691,15.9026187 148.58074,15.9026187 C143.153526,15.9026187 139.173638,18.7167781 139.173638,22.9376265 C139.173638,25.430592 140.258873,27.2392293 142.229019,28.364841 C139.897301,29.0080104 138.610702,30.4555975 138.610702,32.3447287 C138.610702,34.5157187 140.058029,35.9226682 142.831811,36.4051104 C139.53547,37.0079026 137.646078,38.2140082 137.646078,40.2242709 C137.646078,42.9178198 140.620704,44.2846525 148.259286,44.2846525 L148.259286,44.2846525 Z M152.27903,36.9279298 C155.012695,36.9279298 155.937463,37.3699948 155.937463,39.0181654 C155.937463,41.0281676 153.324148,42.0331687 148.46013,42.0331687 C143.957423,42.0331687 141.907304,41.3897388 141.907304,39.8223226 C141.907304,38.4956065 142.791434,37.4502282 144.600852,36.9279298 L152.27903,36.9279298 L152.27903,36.9279298 Z M148.379636,27.1991126 C145.967425,27.1991126 144.640969,25.7919026 144.640969,23.2192248 L144.640969,22.6562887 C144.640969,19.9226232 145.927569,18.5156737 148.500246,18.5156737 C150.992691,18.5156737 152.238913,19.882767 152.238913,22.6161721 L152.238913,23.1788476 C152.238913,25.7520465 150.87208,27.1991126 148.379636,27.1991126 L148.379636,27.1991126 Z" id="Fill-11" fill="#377BB4" sketch:type="MSShapeGroup" mask="url(#mask-2)"></path>
            </g>
        </g>
    </g>
</svg>